<mxfile host="app.diagrams.net" modified="2023-12-12T03:52:57.966Z" agent="Mozilla/5.0 (Windows NT 10.0; Win64; x64) AppleWebKit/537.36 (KHTML, like Gecko) Chrome/119.0.0.0 Safari/537.36" version="22.1.7" etag="UX3Xt-MN47BP9ry4GSqX" type="github">
  <diagram name="PÃ¡gina-1" id="hY9tJcg8RJR5vtGtE_bd">
    <mxGraphModel>
      <root>
        <mxCell id="0" />
        <mxCell id="1" parent="0" />
      </root>
    </mxGraphModel>
  </diagram>
</mxfile>
